<svg xmlns="http://www.w3.org/2000/svg" height="108" width="108" viewBox="0 0 116 116">
    <path d="M53.33 71.48c12.25 2.38 24.32-4.17 28.57-14.93 0 0-9 5.16-21.88-4.39s-26.39-2.66-26.41-2.65c.4 10.5 8.31 19.76 19.73 22" fill="#febe23"></path>
    <path d="M58 73c-14.89 0-26-12.11-26-27s11.11-27 26-27a29.2 29.2 0 0 1 13.15 3.24 1 1 0 0 1-.93 1.76A27.19 27.19 0 0 0 58 21c-13.78 0-24 11.21-24 25s10.22 25 24 25a25 25 0 0 0 25-25c0-5.23-1.1-10.13-4.11-14.37a1 1 0 0 1 1.63-1.16C83.77 35 85 40.35 85 46a27 27 0 0 1-27 27z" fill="#732b90"></path>
    <path d="M85.65 67.42A35 35 0 0 0 58 11c-19.3 0-34 15.7-34 35a35.87 35.87 0 0 0 6.48 20.75L16.53 91.52l15.78 4L43 108l15-26 14 26 12-12.49 15.5-4zM58 15a31 31 0 0 1 0 62c-17.09 0-30-13.91-30-31s12.91-31 30-31zm-15.29 86.08l-8.24-9.15-11.88-3L33 70a34.75 34.75 0 0 0 8.72 6.85l-5.1 9.08a1 1 0 0 0 1.74 1l5.14-9.15a33.3 33.3 0 0 0 10.6 3zm38.93-9.15L73.39 101 62 80.77a34.71 34.71 0 0 0 10.58-3l5.3 9.43a1 1 0 0 0 1.74-1l-5.24-9.33a35.19 35.19 0 0 0 8.51-6.33L93.48 89z" fill="#732b90"></path>
</svg>