<svg width="63" height="63" viewBox="0 0 63 63" fill="none" xmlns="http://www.w3.org/2000/svg">
<path d="M49.728 29.169C48.5809 20.1338 40.845 13.125 31.5 13.125C24.2655 13.125 17.9812 17.3513 15.1121 24.0161C9.47362 25.704 5.25 31.0275 5.25 36.75C5.25 43.7246 10.7336 49.3894 17.6085 49.7989V49.875H47.2238V49.8671L47.25 49.875C53.0407 49.875 57.75 45.1657 57.75 39.375C57.7469 37.0217 56.9549 34.7375 55.5007 32.8873C54.0465 31.0371 52.0139 29.728 49.728 29.169ZM21 31.5H28.875V23.625H34.125V31.5H42L31.5 44.625L21 31.5Z" fill="#BE1313"/>
</svg>
