<svg width="63" height="63" viewBox="0 0 63 63" fill="none" xmlns="http://www.w3.org/2000/svg">
<path d="M31.5 29.5312C31.5 27.3144 32.2324 25.2709 33.4688 23.625H7.875V45.2812C7.875 47.892 8.91211 50.3958 10.7582 52.2418C12.6042 54.0879 15.108 55.125 17.7188 55.125H31.6969C31.5656 54.477 31.4997 53.8174 31.5 53.1562V29.5312ZM7.875 19.6875V17.7188C7.875 15.108 8.91211 12.6042 10.7582 10.7582C12.6042 8.91211 15.108 7.875 17.7188 7.875H45.2812C47.892 7.875 50.3958 8.91211 52.2418 10.7582C54.0879 12.6042 55.125 15.108 55.125 17.7188V19.6875H7.875ZM42.3281 23.625C40.5006 23.625 38.748 24.351 37.4557 25.6432C36.1635 26.9355 35.4375 28.6881 35.4375 30.5156V52.1719C35.4375 55.9755 38.5245 59.0625 42.3281 59.0625H52.1719C53.9994 59.0625 55.752 58.3365 57.0443 57.0443C58.3365 55.752 59.0625 53.9994 59.0625 52.1719V30.5156C59.0625 28.6881 58.3365 26.9355 57.0443 25.6432C55.752 24.351 53.9994 23.625 52.1719 23.625H42.3281ZM43.3125 49.2188C43.3125 48.6966 43.5199 48.1958 43.8891 47.8266C44.2583 47.4574 44.7591 47.25 45.2812 47.25H49.2188C49.7409 47.25 50.2417 47.4574 50.6109 47.8266C50.9801 48.1958 51.1875 48.6966 51.1875 49.2188C51.1875 49.7409 50.9801 50.2417 50.6109 50.6109C50.2417 50.9801 49.7409 51.1875 49.2188 51.1875H45.2812C44.7591 51.1875 44.2583 50.9801 43.8891 50.6109C43.5199 50.2417 43.3125 49.7409 43.3125 49.2188Z" fill="#BE1313"/>
</svg>
