<svg xmlns="http://www.w3.org/2000/svg" height="108" width="108" viewBox="0 0 116 116">
    <circle cx="66" cy="47" r="8" fill="#febe23"></circle>
    <path d="M81 27.81v-2.26C81 13.09 74.27 3 66 3S51 13.09 51 25.5c0 .86 0 1.7.1 2.53L33 39v69h67V39zM53 25.5C53 14.19 58.83 5 66 5s13 9.19 13 20.5v1.15L66 19l-12.95 7.85C53 26.4 53 26 53 25.5zM96 104H37V41l14.72-8.63A24.06 24.06 0 0 0 57.51 44a9 9 0 1 0 .92-1.89 22.89 22.89 0 0 1-4.88-10.81L66 24l30 17zM66 48c3.5 0 5.63-1 6.9-2.15a7 7 0 1 1-13.73-.33A11.13 11.13 0 0 0 66 48zm-6.11-4.41a7 7 0 0 1 12.31.19C71 45.38 69.12 46 66 46a9.44 9.44 0 0 1-6.11-2.41z" fill="#732b90"></path>
    <path d="M54.95 96a1.9 1.9 0 0 1-1.29-.51 2.06 2.06 0 0 1-.16-2.84l24.1-28a1.91 1.91 0 0 1 2.75-.17 2.06 2.06 0 0 1 .16 2.84l-24.1 28a1.92 1.92 0 0 1-1.46.68zM75.5 82a7.5 7.5 0 1 0 7.5 7.5 7.51 7.51 0 0 0-7.5-7.5zm0 11a3.5 3.5 0 1 1 3.5-3.5 3.5 3.5 0 0 1-3.5 3.5zM57.5 63a7.5 7.5 0 1 0 7.5 7.5 7.51 7.51 0 0 0-7.5-7.5zm0 11a3.5 3.5 0 1 1 3.5-3.5 3.5 3.5 0 0 1-3.5 3.5z" fill="#e33059"></path>
    <path d="M28.06 69a.94.94 0 0 1-.78-.41l-4.12-6.1a1 1 0 0 1 .25-1.32.94.94 0 0 1 1.31.25l4.12 6.1a1 1 0 0 1-.25 1.32.93.93 0 0 1-.53.16zM25.06 75a.94.94 0 0 1-.35-.07l-10.13-4.12a.94.94 0 0 1 .7-1.74l10.13 4.12a.94.94 0 0 1-.35 1.81zM10 86a1 1 0 0 1-1-.91 1.09 1.09 0 0 1 .81-1.26l15-2.81a1 1 0 0 1 1.14.89 1.09 1.09 0 0 1-.81 1.26L10.15 86zM10 100a1 1 0 0 1-.88-.51 1 1 0 0 1 .4-1.32l17-9a1 1 0 0 1 1.36.39 1 1 0 0 1-.4 1.32l-17 9a1 1 0 0 1-.48.12z" fill="#febe23"></path>
</svg>