<svg xmlns="http://www.w3.org/2000/svg" height="108" width="108" viewBox="0 0 116 116">
  <path d="M21 81s2 13 11 13 9 12 9 12H21z" fill="#febe23" fill-rule="evenodd"></path>
  <path fill="#e33059" fill-rule="evenodd" d="M37 81.98L43 85V74H31v11l6-3.02"></path>
  <path d="M19 74v32a2 2 0 0 0 2 2h32a2 2 0 0 0 2-2V74a2 2 0 0 0-2-2H21a2 2 0 0 0-2 2zm32 30H23V76h28z" fill="#732b90"></path>
  <path d="M73 76H61a2 2 0 0 1 0-4h12c2.87 0 5-2.63 5-5.5S75.87 61 73 61H46c-5.29 0-10-4.21-10-9.5S40.71 42 46 42h24a2 2 0 0 1 0 4H46c-2.87 0-6 2.63-6 5.5s3.13 5.5 6 5.5h27c5.29 0 9 4.21 9 9.5a9.52 9.52 0 0 1-9.59 9.5" fill="#febe23" fill-rule="evenodd"></path>
  <path d="M82 47a2.16 2.16 0 0 1-1.66-.79l-8.86-10.73L70.37 34l-.09-.13A14.75 14.75 0 0 1 68 26a14 14 0 0 1 28 0 14.75 14.75 0 0 1-2.27 7.88l-.09.13-1 1.39-8.98 10.81A2.15 2.15 0 0 1 82 47zm-8.53-15.41l1 1.32L82 42l7.5-9.16.94-1.24A11 11 0 0 0 92 26a10 10 0 0 0-20 0 10.89 10.89 0 0 0 1.47 5.59zm18.44 1.1z" fill="#732b90" fill-rule="evenodd"></path>
  <path d="M82 21a5 5 0 1 1-5 5 5 5 0 0 1 5-5" fill="#e33059" fill-rule="evenodd"></path>
</svg>