<svg version="1.1" xmlns="http://www.w3.org/2000/svg" xmlns:xlink="http://www.w3.org/1999/xlink" x="0px" y="0px" width="80px" height="86px" viewBox="0 0 80 86" style="enable-background:new 0 0 80 86;" xml:space="preserve">
  <g>
      <path style="fill:#E33059;" d="M79.4,30.8c0,17-13.8,30.8-30.8,30.8c-17,0-30.8-13.8-30.8-30.8S31.6,0,48.6,0C65.6,0,79.4,13.8,79.4,30.8z"></path>
      <path style="fill:#FEBE23;" d="M77.2,84.1h-56l27.4-45.7"></path>
      <path style="fill:#732B90;" d="M79,85.1H19.5l29.2-48.6L79,85.1z M23,83.1h52.4L48.7,40.3L23,83.1z"></path>
      <path style="fill:#FFFFFF;" d="M2,68.2h39v-39H2"></path>
      <path style="fill:#732B90;" d="M43,70.2H0v-43h43V70.2z M4,66.2h35v-35H4V66.2z"></path>
      <path style="fill:none;stroke:#732B90;stroke-width:2;stroke-linecap:round;stroke-linejoin:round;" d="M69.1,15.7c2.8,4.1,4.5,9.1,4.5,14.5c0,8.1-3.8,15.4-9.7,20"></path>
  </g>
</svg>