<svg width="75" height="75" viewBox="0 0 75 75" fill="none" xmlns="http://www.w3.org/2000/svg">
<path fill-rule="evenodd" clip-rule="evenodd" d="M72.915 35.1037C69.6075 16.6312 62.2125 11.1825 58.2788 11.1825C52.14 11.1825 50.565 15.7462 37.5 15.9C24.435 15.7462 22.86 11.1825 16.7213 11.1825C12.7875 11.1825 5.38876 16.6312 2.08126 35.1037C0.195007 45.6487 -1.85249 61.3912 3.02626 63.2812C9.09751 65.6325 11.1563 59.7525 17.8238 54.7837C24.5925 49.7475 27.84 48.5625 37.5 48.5625C47.16 48.5625 50.4075 49.7475 57.1763 54.7837C63.8438 59.7487 65.9025 65.6325 71.9738 63.2812C76.8525 61.3912 74.805 45.6525 72.915 35.1037ZM22.5 37.5C20.5109 37.5 18.6032 36.7098 17.1967 35.3033C15.7902 33.8968 15 31.9891 15 30C15 28.0109 15.7902 26.1032 17.1967 24.6967C18.6032 23.2902 20.5109 22.5 22.5 22.5C24.4891 22.5 26.3968 23.2902 27.8033 24.6967C29.2098 26.1032 30 28.0109 30 30C30 31.9891 29.2098 33.8968 27.8033 35.3033C26.3968 36.7098 24.4891 37.5 22.5 37.5ZM48.75 37.5C47.7554 37.5 46.8016 37.1049 46.0984 36.4016C45.3951 35.6984 45 34.7446 45 33.75C45 32.7554 45.3951 31.8016 46.0984 31.0983C46.8016 30.3951 47.7554 30 48.75 30C49.7446 30 50.6984 30.3951 51.4017 31.0983C52.1049 31.8016 52.5 32.7554 52.5 33.75C52.5 34.7446 52.1049 35.6984 51.4017 36.4016C50.6984 37.1049 49.7446 37.5 48.75 37.5ZM56.25 30C55.2554 30 54.3016 29.6049 53.5984 28.9016C52.8951 28.1984 52.5 27.2446 52.5 26.25C52.5 25.2554 52.8951 24.3016 53.5984 23.5983C54.3016 22.8951 55.2554 22.5 56.25 22.5C57.2446 22.5 58.1984 22.8951 58.9017 23.5983C59.6049 24.3016 60 25.2554 60 26.25C60 27.2446 59.6049 28.1984 58.9017 28.9016C58.1984 29.6049 57.2446 30 56.25 30Z" fill="#F8F8F8"/>
</svg>
