<svg width="24" height="24" viewBox="0 0 24 24" fill="none" xmlns="http://www.w3.org/2000/svg">
<path d="M17.4129 1.78793C16.8136 1.50679 16.247 1.24212 15.7312 0.983435C14.4093 0.321572 13.2107 0 12.0683 0C9.76736 0 8.17509 1.32672 7.1765 2.32475L2.33413 7.16968C-0.257107 9.7621 -0.671001 12.4013 0.99354 15.7286C1.25164 16.2452 1.5172 16.8127 1.79813 17.414C3.31287 20.6518 4.87855 24 7.44132 24C7.51323 24 7.5844 23.9978 7.65707 23.9921C10.3019 23.7851 11.0521 20.3822 11.7143 17.3803C11.8196 16.9048 11.9192 16.4488 12.0215 16.0401C12.1994 15.3332 12.5496 14.8942 13.5092 13.9328L13.6411 13.8003L13.7224 13.719L13.9359 13.5064C14.8977 12.5451 15.3371 12.1954 16.045 12.0168C16.4503 11.915 16.9054 11.8147 17.38 11.7106C20.3817 11.0484 23.785 10.2982 23.9911 7.65073C24.1989 4.96394 20.7495 3.34937 17.4129 1.78793ZM22.452 7.51518C22.3063 9.38173 18.1255 9.93269 15.6372 10.5564C14.5367 10.8341 13.867 11.4163 12.8564 12.4266C12.786 12.497 12.7152 12.5674 12.6437 12.6389C12.5729 12.7096 12.5025 12.7815 12.4317 12.8515C11.4211 13.8627 10.8398 14.5316 10.563 15.633C9.93856 18.1221 9.38798 22.3052 7.52267 22.4519C7.489 22.4544 7.45525 22.4555 7.42149 22.4553C5.44229 22.4553 3.77698 17.9574 2.30758 15.0228C0.815318 12.0396 1.45468 10.1041 3.36947 8.18856C3.73692 7.82059 4.19387 7.36387 4.75384 6.80386C5.3258 6.23147 6.00599 5.55089 6.81205 4.7449C7.37165 4.18486 7.82824 3.7289 8.19606 3.36015C9.38531 2.17045 10.5824 1.4734 12.0335 1.4734C12.9186 1.4734 13.8977 1.73208 15.027 2.2981C18.0108 3.79331 22.6093 5.49137 22.452 7.51518ZM11.2226 8.2391H12.7209V6.74167H11.2226V8.2391ZM11.2226 5.99296H12.7209V4.49553H11.2226V5.99296ZM13.47 5.99296H14.9682V4.49553H13.47V5.99296ZM13.47 8.2391H14.9682V6.74167H13.47V8.2391ZM7.73692 12.7351L8.30663 12.1657C8.58755 11.885 8.58755 11.4294 8.30663 11.149C8.02571 10.8682 7.57061 10.8682 7.28969 11.149L6.7196 11.7188L6.14951 11.149C5.86859 10.8682 5.4135 10.8682 5.13257 11.149C4.85165 11.4298 4.85165 11.885 5.13257 12.1657L5.70264 12.7355L5.13257 13.3053C4.85165 13.5857 4.85165 14.0409 5.13257 14.3216C5.4135 14.6024 5.86897 14.6024 6.14951 14.3216L6.7196 13.7523L7.30617 14.3385C7.58709 14.6193 8.04219 14.6193 8.32311 14.3385C8.60404 14.0577 8.60404 13.6022 8.32311 13.3214L7.73692 12.7351Z" fill="#F8F8F8"/>
</svg>
