<svg width="24" height="24" viewBox="0 0 24 24" fill="none" xmlns="http://www.w3.org/2000/svg">
<path d="M7 8C8.65685 8 10 6.65685 10 5C10 3.34315 8.65685 2 7 2C5.34315 2 4 3.34315 4 5C4 6.65685 5.34315 8 7 8Z" stroke="#F8F8F8" stroke-width="2"/>
<path d="M10 12H5.898C5.16692 12.0002 4.46108 12.2674 3.91308 12.7513C3.36509 13.2352 3.01265 13.9026 2.922 14.628L2.281 19.752C2.24583 20.0334 2.27092 20.3191 2.3546 20.5901C2.43829 20.8611 2.57865 21.1112 2.76638 21.3238C2.9541 21.5364 3.1849 21.7066 3.44345 21.8232C3.70199 21.9398 3.98238 22.0001 4.266 22H9M21.719 19.752L21.079 14.628C20.9883 13.9022 20.6356 13.2346 20.0872 12.7506C19.5388 12.2667 18.8324 11.9997 18.101 12H15.897C15.1659 12.0002 14.4601 12.2674 13.9121 12.7513C13.3641 13.2352 13.0117 13.9026 12.921 14.628L12.28 19.752C12.2448 20.0335 12.2699 20.3193 12.3537 20.5903C12.4374 20.8614 12.5779 21.1116 12.7657 21.3242C12.9535 21.5368 13.1845 21.707 13.4431 21.8235C13.7018 21.94 13.9823 22.0002 14.266 22H19.734C20.0176 22.0001 20.298 21.9398 20.5566 21.8232C20.8151 21.7066 21.0459 21.5364 21.2336 21.3238C21.4214 21.1112 21.5617 20.8611 21.6454 20.5901C21.7291 20.3191 21.7542 20.0334 21.719 19.752Z" stroke="#F8F8F8" stroke-width="2" stroke-linecap="round" stroke-linejoin="round"/>
<path d="M17 8C18.6569 8 20 6.65685 20 5C20 3.34315 18.6569 2 17 2C15.3431 2 14 3.34315 14 5C14 6.65685 15.3431 8 17 8Z" stroke="#F8F8F8" stroke-width="2"/>
</svg>
