<svg width="29" height="29" viewBox="0 0 29 29" fill="none" xmlns="http://www.w3.org/2000/svg">
<path d="M21.524 4.63758C21.3007 4.3247 21.0059 4.06962 20.6642 3.89351C20.3225 3.7174 19.9437 3.62535 19.5593 3.625H9.4407C8.66254 3.625 7.92787 4.00321 7.42641 4.71129L2.59308 12.6633C2.45802 12.8852 2.39813 13.1447 2.42229 13.4033C2.44645 13.6619 2.55338 13.9058 2.7272 14.0988L13.6022 26.1822C13.7149 26.3089 13.8531 26.4103 14.0078 26.4798C14.1625 26.5493 14.3301 26.5853 14.4997 26.5854C14.6693 26.5855 14.837 26.5497 14.9918 26.4805C15.1465 26.4112 15.2849 26.3099 15.3978 26.1834L26.2728 14.1C26.447 13.9072 26.5541 13.6633 26.5783 13.4046C26.6025 13.1459 26.5423 12.8863 26.4069 12.6645L21.524 4.63758ZM14.5 23.5685L6.3377 14.5H22.6611L14.5 23.5685ZM5.7722 12.0833L9.4407 6.04167L19.5085 5.96675L23.2266 12.0833H5.7722Z" fill="#F8F8F8"/>
</svg>
