<svg width="21" height="20" viewBox="0 0 21 20" fill="none" xmlns="http://www.w3.org/2000/svg">
<path d="M19.743 10.324L10.743 0.31673C10.364 -0.105577 9.63598 -0.105577 9.25698 0.31673L0.256984 10.324C0.12744 10.4677 0.0424085 10.646 0.0122281 10.8371C-0.0179524 11.0283 0.00801875 11.2241 0.0869837 11.4008C0.246984 11.762 0.604984 11.9942 0.999984 11.9942H2.99998V18.9993C2.99998 19.2647 3.10534 19.5192 3.29288 19.7069C3.48041 19.8946 3.73477 20 3.99998 20H6.99998C7.2652 20 7.51955 19.8946 7.70709 19.7069C7.89463 19.5192 7.99998 19.2647 7.99998 18.9993V14.9964H12V18.9993C12 19.2647 12.1053 19.5192 12.2929 19.7069C12.4804 19.8946 12.7348 20 13 20H16C16.2652 20 16.5196 19.8946 16.7071 19.7069C16.8946 19.5192 17 19.2647 17 18.9993V11.9942H19C19.1937 11.995 19.3834 11.9394 19.546 11.8342C19.7087 11.729 19.8372 11.5787 19.916 11.4017C19.9947 11.2246 20.0203 11.0284 19.9896 10.8371C19.9589 10.6457 19.8732 10.4674 19.743 10.324Z" fill="#BE242F"/>
</svg>
