<svg width="35" height="35" viewBox="0 0 35 35" fill="none" xmlns="http://www.w3.org/2000/svg">
<path d="M19.25 3.14825C11.4713 3.14825 5.14325 9.38175 4.95425 17.1413V17.5H0.803253L7.09275 24.3145L13.2073 17.5H8.53125V17.1413C8.7185 11.361 13.4453 6.7375 19.25 6.7375C25.1755 6.7375 29.9793 11.557 29.9793 17.5C29.9793 23.443 25.1755 28.2625 19.25 28.2625C16.9653 28.2639 14.7405 27.5321 12.9028 26.1748L10.4423 28.8068C12.9535 30.7805 16.0559 31.8518 19.25 31.8483C27.1513 31.8483 33.5545 25.4258 33.5545 17.5C33.5545 9.57425 27.1513 3.14825 19.25 3.14825ZM17.5 8.75V17.5C17.502 17.9637 17.6862 18.4081 18.0128 18.7373L23.6128 24.3373C24.108 24.017 24.5753 23.6565 24.99 23.2383L21 19.25V8.75H17.5Z" fill="#F8F8F8"/>
</svg>
