<svg width="75" height="60" viewBox="0 0 75 60" fill="none" xmlns="http://www.w3.org/2000/svg">
<g clip-path="url(#clip0_5_98)">
<path d="M61.875 52.5H13.125C12.0938 52.5 11.25 53.3438 11.25 54.375V58.125C11.25 59.1562 12.0938 60 13.125 60H61.875C62.9062 60 63.75 59.1562 63.75 58.125V54.375C63.75 53.3438 62.9062 52.5 61.875 52.5ZM69.375 15C66.2695 15 63.75 17.5195 63.75 20.625C63.75 21.457 63.9375 22.2305 64.2656 22.9453L55.7812 28.0312C53.9766 29.1094 51.6445 28.5 50.6016 26.6719L41.0508 9.96094C42.3047 8.92969 43.125 7.38281 43.125 5.625C43.125 2.51953 40.6055 0 37.5 0C34.3945 0 31.875 2.51953 31.875 5.625C31.875 7.38281 32.6953 8.92969 33.9492 9.96094L24.3984 26.6719C23.3555 28.5 21.0117 29.1094 19.2188 28.0312L10.7461 22.9453C11.0625 22.2422 11.2617 21.457 11.2617 20.625C11.2617 17.5195 8.74219 15 5.63672 15C2.53125 15 0 17.5195 0 20.625C0 23.7305 2.51953 26.25 5.625 26.25C5.92969 26.25 6.23438 26.2031 6.52734 26.1562L15 48.75H60L68.4727 26.1562C68.7656 26.2031 69.0703 26.25 69.375 26.25C72.4805 26.25 75 23.7305 75 20.625C75 17.5195 72.4805 15 69.375 15Z" fill="#F8F8F8"/>
</g>
<defs>
<clipPath id="clip0_5_98">
<rect width="75" height="60" fill="white"/>
</clipPath>
</defs>
</svg>
