<svg width="43" height="30" viewBox="0 0 43 30" fill="none" xmlns="http://www.w3.org/2000/svg">
<path d="M36.3086 13.0971C35.3721 5.72143 29.0571 0 21.4286 0C15.5229 0 10.3929 3.45 8.05071 8.89071C3.44786 10.2686 0 14.6143 0 19.2857C0 24.9793 4.47643 29.6036 10.0886 29.9379V30H34.2643V29.9936L34.2857 30C39.0129 30 42.8571 26.1557 42.8571 21.4286C42.8546 19.5075 42.2081 17.6428 41.021 16.1325C39.8338 14.6222 38.1746 13.5534 36.3086 13.0971ZM12.8571 15H19.2857V8.57143H23.5714V15H30L21.4286 25.7143L12.8571 15Z" fill="#F13086"/>
</svg>
