<svg width="23" height="16" viewBox="0 0 23 16" fill="none" xmlns="http://www.w3.org/2000/svg">
<path d="M8.05 11.2253L4.6368 14.557C4.25692 14.9277 3.77296 15.1801 3.24611 15.2824C2.71925 15.3847 2.17316 15.3322 1.67687 15.1315C1.18059 14.9309 0.756392 14.5911 0.457915 14.1552C0.159439 13.7192 8.46884e-05 13.2067 0 12.6823V11.2253L1.56055 3.61005C1.76898 2.59217 2.33227 1.67622 3.15458 1.01804C3.9769 0.359856 5.00743 0.000107846 6.07085 0H16.9291C17.9926 0.000107846 19.0231 0.359856 19.8454 1.01804C20.6677 1.67622 21.231 2.59217 21.4394 3.61005L23 11.2253V12.6812C22.9999 13.2056 22.8406 13.7181 22.5421 14.154C22.2436 14.59 21.8194 14.9298 21.3231 15.1304C20.8268 15.331 20.2807 15.3836 19.7539 15.2813C19.227 15.179 18.7431 14.9266 18.3632 14.5558L14.95 11.2253H8.05Z" fill="#BE242F"/>
<path d="M8.04999 0L9.19999 2.24506H13.8L14.95 0" fill="#BE242F"/>
</svg>
