<svg width="24" height="19" viewBox="0 0 24 19" fill="none" xmlns="http://www.w3.org/2000/svg">
<path d="M7.5 9C8.09095 9 8.67611 8.8836 9.22208 8.65746C9.76804 8.43131 10.2641 8.09984 10.682 7.68198C11.0998 7.26412 11.4313 6.76804 11.6575 6.22208C11.8836 5.67611 12 5.09095 12 4.5C12 3.90905 11.8836 3.32389 11.6575 2.77792C11.4313 2.23196 11.0998 1.73588 10.682 1.31802C10.2641 0.900156 9.76804 0.568688 9.22208 0.342542C8.67611 0.116396 8.09095 -1.24533e-08 7.5 0C6.30653 2.51506e-08 5.16193 0.474106 4.31802 1.31802C3.47411 2.16193 3 3.30653 3 4.5C3 5.69347 3.47411 6.83807 4.31802 7.68198C5.16193 8.52589 6.30653 9 7.5 9ZM15.1 16.619C15.863 16.854 16.814 17 18 17C24 17 24 13.25 24 13.25C24 12.6533 23.7629 12.081 23.341 11.659C22.919 11.2371 22.3467 11 21.75 11H15.094C15.6752 11.6047 15.9993 12.4113 15.998 13.25V13.805L15.995 13.888C15.9738 14.222 15.9222 14.5534 15.841 14.878C15.6866 15.493 15.4369 16.0801 15.101 16.618L15.1 16.619ZM21.5 5.5C21.5 5.95963 21.4095 6.41475 21.2336 6.83939C21.0577 7.26403 20.7999 7.64987 20.4749 7.97487C20.1499 8.29988 19.764 8.55769 19.3394 8.73358C18.9148 8.90947 18.4596 9 18 9C17.5404 9 17.0852 8.90947 16.6606 8.73358C16.236 8.55769 15.8501 8.29988 15.5251 7.97487C15.2001 7.64987 14.9423 7.26403 14.7664 6.83939C14.5905 6.41475 14.5 5.95963 14.5 5.5C14.5 4.57174 14.8687 3.6815 15.5251 3.02513C16.1815 2.36875 17.0717 2 18 2C18.9283 2 19.8185 2.36875 20.4749 3.02513C21.1313 3.6815 21.5 4.57174 21.5 5.5ZM0 13.25C0 12.6533 0.237053 12.081 0.65901 11.659C1.08097 11.2371 1.65326 11 2.25 11H12.75C13.3467 11 13.919 11.2371 14.341 11.659C14.7629 12.081 15 12.6533 15 13.25V13.75C15 13.75 15 19 7.5 19C0 19 0 13.75 0 13.75V13.25Z" fill="#BE242F"/>
</svg>
