<svg width="16" height="22" viewBox="0 0 16 22" fill="none" xmlns="http://www.w3.org/2000/svg">
<path d="M8.8761 8.5876C9.02275 8.13385 9.64402 8.13385 9.79067 8.5876L10.6506 11.251C10.8398 11.8365 11.1587 12.3684 11.582 12.8047C12.0052 13.241 12.5212 13.5696 13.089 13.7645L15.67 14.6514C16.11 14.8026 16.11 15.4434 15.67 15.5946L13.0876 16.4815C12.52 16.6767 12.0042 17.0056 11.5812 17.4421C11.1582 17.8787 10.8395 18.4108 10.6506 18.9964L9.79067 21.6584C9.75905 21.7578 9.69781 21.8443 9.6157 21.9056C9.53358 21.967 9.43478 22 9.33338 22C9.23199 22 9.13318 21.967 9.05107 21.9056C8.96895 21.8443 8.90772 21.7578 8.8761 21.6584L8.01619 18.995C7.82705 18.4097 7.50835 17.8778 7.08535 17.4415C6.66234 17.0053 6.14665 16.6766 5.57912 16.4815L2.99673 15.5946C2.90039 15.562 2.8165 15.4989 2.75702 15.4142C2.69755 15.3295 2.66552 15.2276 2.66552 15.123C2.66552 15.0184 2.69755 14.9165 2.75702 14.8318C2.8165 14.7471 2.90039 14.684 2.99673 14.6514L5.57912 13.7645C6.14665 13.5694 6.66234 13.2407 7.08535 12.8045C7.50835 12.3682 7.82705 11.8363 8.01619 11.251L8.8761 8.5876ZM3.72598 1.57645C3.7451 1.5169 3.78193 1.46508 3.83123 1.42836C3.88053 1.39163 3.9398 1.37186 4.00062 1.37186C4.06144 1.37186 4.12071 1.39163 4.17001 1.42836C4.21931 1.46508 4.25614 1.5169 4.27526 1.57645L4.7912 3.1742C5.02184 3.88646 5.56312 4.44471 6.25371 4.68259L7.80288 5.21471C7.86061 5.23443 7.91085 5.27241 7.94646 5.32326C7.98207 5.37411 8.00124 5.43524 8.00124 5.49796C8.00124 5.56069 7.98207 5.62182 7.94646 5.67267C7.91085 5.72352 7.86061 5.7615 7.80288 5.78122L6.25371 6.31334C5.91312 6.43038 5.60363 6.62762 5.34977 6.88943C5.09592 7.15125 4.90468 7.47044 4.7912 7.82172L4.27526 9.41948C4.25614 9.47903 4.21931 9.53084 4.17001 9.56757C4.12071 9.6043 4.06144 9.62406 4.00062 9.62406C3.9398 9.62406 3.88053 9.6043 3.83123 9.56757C3.78193 9.53084 3.7451 9.47903 3.72598 9.41948L3.21004 7.82172C3.09656 7.47044 2.90532 7.15125 2.65147 6.88943C2.39761 6.62762 2.08813 6.43038 1.74753 6.31334L0.198362 5.78122C0.140627 5.7615 0.0903855 5.72352 0.054776 5.67267C0.0191664 5.62182 0 5.56069 0 5.49796C0 5.43524 0.0191664 5.37411 0.054776 5.32326C0.0903855 5.27241 0.140627 5.23443 0.198362 5.21471L1.74753 4.68259C2.08813 4.56555 2.39761 4.36831 2.65147 4.10649C2.90532 3.84468 3.09656 3.52548 3.21004 3.1742L3.72598 1.57645ZM13.1503 0.134067C13.1635 0.0949152 13.1881 0.0609658 13.2209 0.0369385C13.2536 0.0129112 13.2928 0 13.333 0C13.3731 0 13.4123 0.0129112 13.445 0.0369385C13.4778 0.0609658 13.5024 0.0949152 13.5156 0.134067L13.8596 1.19832C14.0129 1.67407 14.3742 2.0467 14.8355 2.20483L15.8673 2.55958C15.9053 2.57315 15.9382 2.59859 15.9615 2.63235C15.9848 2.66611 15.9973 2.70651 15.9973 2.74795C15.9973 2.78939 15.9848 2.8298 15.9615 2.86356C15.9382 2.89732 15.9053 2.92275 15.8673 2.93633L14.8355 3.29108C14.6081 3.36907 14.4016 3.50065 14.2322 3.67537C14.0628 3.85009 13.9352 4.06313 13.8596 4.29758L13.5156 5.36184C13.5024 5.40099 13.4778 5.43494 13.445 5.45897C13.4123 5.48299 13.3731 5.49591 13.333 5.49591C13.2928 5.49591 13.2536 5.48299 13.2209 5.45897C13.1881 5.43494 13.1635 5.40099 13.1503 5.36184L12.8063 4.29758C12.7307 4.06313 12.6031 3.85009 12.4337 3.67537C12.2643 3.50065 12.0578 3.36907 11.8304 3.29108L10.7999 2.93633C10.7619 2.92275 10.729 2.89732 10.7057 2.86356C10.6824 2.8298 10.6699 2.78939 10.6699 2.74795C10.6699 2.70651 10.6824 2.66611 10.7057 2.63235C10.729 2.59859 10.7619 2.57315 10.7999 2.55958L11.8318 2.20483C12.2931 2.0467 12.6544 1.67407 12.8077 1.19832L13.1503 0.135442V0.134067Z" fill="#BE242F"/>
</svg>
