<svg width="41" height="43" viewBox="0 0 41 43" fill="none" xmlns="http://www.w3.org/2000/svg">
<path d="M9.85439 0C9.02152 2.82425 8.34424 5.70029 8.69203 8.46905C9.07643 11.4931 10.614 14.4708 14.7052 17.3191C9.79947 24.2364 6.82494 36.2214 9.27779 43C10.2754 38.0062 10.5774 33.9557 14.1743 29.6278C21.2674 27.2604 25.5141 26.1507 27.0151 18.0034C27.5826 16.644 28.1683 16.2186 29.9347 15.7193C30.9049 15.4511 31.9666 15.0257 31.9574 13.9437C31.9391 9.38457 29.3673 7.61826 26.6856 7.6645C23.9948 7.71074 21.1942 9.56953 20.7 12.2699C20.1508 12.4363 19.6108 12.686 19.08 13.0097C13.3231 8.96843 11.5659 5.06959 9.85439 0ZM0 7.71999C0.988459 10.2354 2.41989 12.7692 4.50298 14.7575C6.72427 16.8752 9.67134 18.3918 13.735 18.66C10.5774 16.4221 8.71949 14.0084 7.76764 11.5208C5.07684 10.5128 2.59928 9.20887 0 7.71999ZM27.4636 10.1521C27.7594 10.1531 28.0429 10.2723 28.2521 10.4837C28.4613 10.695 28.5792 10.9814 28.5802 11.2804C28.5792 11.5793 28.4613 11.8657 28.2521 12.0771C28.0429 12.2884 27.7594 12.4076 27.4636 12.4086C27.1678 12.4076 26.8843 12.2884 26.6751 12.0771C26.4659 11.8657 26.348 11.5793 26.347 11.2804C26.348 10.9814 26.4659 10.695 26.6751 10.4837C26.8843 10.2723 27.1678 10.1531 27.4636 10.1521ZM32.955 15.3401C32.6347 15.8117 32.3052 16.2834 31.4815 16.5608C34.5842 18.9005 38.7211 23.6353 41 26.2709C39.9749 23.2007 35.893 18.0774 32.955 15.3401Z" fill="#F8F8F8"/>
</svg>
