<svg width="34" height="32" viewBox="0 0 34 32" fill="none" xmlns="http://www.w3.org/2000/svg">
<mask id="mask0_6_42" style="mask-type:alpha" maskUnits="userSpaceOnUse" x="0" y="0" width="34" height="32">
<path d="M27.5 20.75H6.5C5.30653 20.75 4.16193 21.2241 3.31802 22.068C2.47411 22.9119 2 24.0565 2 25.25C2 26.4435 2.47411 27.5881 3.31802 28.432C4.16193 29.2759 5.30653 29.75 6.5 29.75H27.5C28.6935 29.75 29.8381 29.2759 30.682 28.432C31.5259 27.5881 32 26.4435 32 25.25C32 24.0565 31.5259 22.9119 30.682 22.068C29.8381 21.2241 28.6935 20.75 27.5 20.75ZM26 14.75C27.5913 14.75 29.1174 14.1179 30.2426 12.9926C31.3679 11.8674 32 10.3413 32 8.75C32 7.1587 31.3679 5.63258 30.2426 4.50736C29.1174 3.38214 27.5913 2.75 26 2.75C24.4087 2.75 22.8826 3.38214 21.7574 4.50736C20.6321 5.63258 20 7.1587 20 8.75C20 10.3413 20.6321 11.8674 21.7574 12.9926C22.8826 14.1179 24.4087 14.75 26 14.75ZM2 8.75L8.75 2L15.5 8.75L8.75 15.5L2 8.75Z" fill="white" stroke="white" stroke-width="4" stroke-linecap="round" stroke-linejoin="round"/>
</mask>
<g mask="url(#mask0_6_42)">
<path d="M-1 -1.75H35V34.25H-1V-1.75Z" fill="#F8F8F8"/>
</g>
</svg>
