<svg width="62" height="67" viewBox="0 0 62 67" fill="none" xmlns="http://www.w3.org/2000/svg">
<g clip-path="url(#clip0_6_102)">
<path d="M0 53.0373V58.625C0 63.2443 10.4141 67 23.25 67C36.0859 67 46.5 63.2443 46.5 58.625V53.0373C41.4988 56.8453 32.3563 58.625 23.25 58.625C14.1438 58.625 5.00117 56.8453 0 53.0373ZM38.75 16.75C51.5859 16.75 62 12.9943 62 8.375C62 3.75566 51.5859 0 38.75 0C25.9141 0 15.5 3.75566 15.5 8.375C15.5 12.9943 25.9141 16.75 38.75 16.75ZM0 39.3102V46.0625C0 50.6818 10.4141 54.4375 23.25 54.4375C36.0859 54.4375 46.5 50.6818 46.5 46.0625V39.3102C41.4988 43.7594 32.3441 46.0625 23.25 46.0625C14.1559 46.0625 5.00117 43.7594 0 39.3102ZM50.375 40.7496C57.3137 39.2971 62 36.6014 62 33.5V27.9123C59.1906 30.0584 55.0613 31.524 50.375 32.427V40.7496ZM23.25 20.9375C10.4141 20.9375 0 25.6223 0 31.4062C0 37.1902 10.4141 41.875 23.25 41.875C36.0859 41.875 46.5 37.1902 46.5 31.4062C46.5 25.6223 36.0859 20.9375 23.25 20.9375ZM49.8059 28.3049C57.0715 26.8916 62 24.1174 62 20.9375V15.3498C57.7012 18.6344 50.3145 20.401 42.5402 20.8197C46.1125 22.691 48.7402 25.2035 49.8059 28.3049Z" fill="#F8F8F8"/>
</g>
<defs>
<clipPath id="clip0_6_102">
<rect width="62" height="67" fill="white"/>
</clipPath>
</defs>
</svg>
