<svg width="63" height="63" viewBox="0 0 63 63" fill="none" xmlns="http://www.w3.org/2000/svg">
<g clip-path="url(#clip0_1_58)">
<path d="M30.1494 24.5976C30.5826 23.2982 32.4174 23.2982 32.8506 24.5976L35.3903 32.2245C35.9493 33.9011 36.8911 35.4245 38.1411 36.6738C39.3912 37.9232 40.915 38.8642 42.5919 39.4223L50.2149 41.962C51.5143 42.3951 51.5143 44.23 50.2149 44.6631L42.588 47.2028C40.9114 47.7618 39.3881 48.7036 38.1387 49.9537C36.8894 51.2037 35.9483 52.7276 35.3903 54.4045L32.8506 62.0275C32.7572 62.312 32.5763 62.5598 32.3338 62.7354C32.0913 62.9111 31.7995 63.0057 31.5 63.0057C31.2005 63.0057 30.9087 62.9111 30.6662 62.7354C30.4237 62.5598 30.2428 62.312 30.1494 62.0275L27.6098 54.4005C27.0511 52.7244 26.1099 51.2013 24.8606 49.952C23.6112 48.7026 22.0882 47.7614 20.412 47.2028L12.7851 44.6631C12.5005 44.5697 12.2528 44.3889 12.0771 44.1463C11.9014 43.9038 11.8069 43.612 11.8069 43.3125C11.8069 43.0131 11.9014 42.7213 12.0771 42.4787C12.2528 42.2362 12.5005 42.0553 12.7851 41.962L20.412 39.4223C22.0882 38.8637 23.6112 37.9224 24.8606 36.6731C26.1099 35.4238 27.0511 33.9007 27.6098 32.2245L30.1494 24.5976ZM14.9389 4.52027C14.9953 4.34976 15.1041 4.20137 15.2497 4.0962C15.3953 3.99103 15.5704 3.93443 15.75 3.93443C15.9296 3.93443 16.1047 3.99103 16.2503 4.0962C16.3959 4.20137 16.5047 4.34976 16.5611 4.52027L18.0849 9.09565C18.7661 11.1353 20.3648 12.7339 22.4044 13.4151L26.9798 14.9389C27.1503 14.9954 27.2987 15.1041 27.4038 15.2497C27.509 15.3954 27.5656 15.5704 27.5656 15.75C27.5656 15.9296 27.509 16.1047 27.4038 16.2503C27.2987 16.3959 27.1503 16.5047 26.9798 16.5611L22.4044 18.085C21.3984 18.4201 20.4844 18.9849 19.7347 19.7347C18.9849 20.4844 18.4201 21.3985 18.0849 22.4044L16.5611 26.9798C16.5047 27.1503 16.3959 27.2987 16.2503 27.4038C16.1047 27.509 15.9296 27.5656 15.75 27.5656C15.5704 27.5656 15.3953 27.509 15.2497 27.4038C15.1041 27.2987 14.9953 27.1503 14.9389 26.9798L13.4151 22.4044C13.0799 21.3985 12.5151 20.4844 11.7654 19.7347C11.0156 18.9849 10.1016 18.4201 9.09563 18.085L4.52025 16.5611C4.34974 16.5047 4.20135 16.3959 4.09618 16.2503C3.99101 16.1047 3.9344 15.9296 3.9344 15.75C3.9344 15.5704 3.99101 15.3954 4.09618 15.2497C4.20135 15.1041 4.34974 14.9954 4.52025 14.9389L9.09563 13.4151C10.1016 13.0799 11.0156 12.5151 11.7654 11.7654C12.5151 11.0156 13.0799 10.1016 13.4151 9.09565L14.9389 4.52027ZM42.7731 0.389837C42.8119 0.277722 42.8848 0.180503 42.9814 0.111698C43.0781 0.0428932 43.1938 0.00592041 43.3125 0.00592041C43.4312 0.00592041 43.5469 0.0428932 43.6436 0.111698C43.7402 0.180503 43.8131 0.277722 43.8519 0.389837L44.8678 3.43746C45.3206 4.79984 46.3877 5.8669 47.7501 6.31971L50.7977 7.33559C50.9098 7.37446 51.007 7.44729 51.0758 7.54397C51.1446 7.64065 51.1816 7.75636 51.1816 7.87502C51.1816 7.99369 51.1446 8.1094 51.0758 8.20608C51.007 8.30276 50.9098 8.37559 50.7977 8.41446L47.7501 9.43034C47.0787 9.65368 46.4686 10.0305 45.9683 10.5308C45.468 11.0311 45.0912 11.6412 44.8678 12.3126L43.8519 15.3602C43.8131 15.4723 43.7402 15.5695 43.6436 15.6384C43.5469 15.7072 43.4312 15.7441 43.3125 15.7441C43.1938 15.7441 43.0781 15.7072 42.9814 15.6384C42.8848 15.5695 42.8119 15.4723 42.7731 15.3602L41.7572 12.3126C41.5338 11.6412 41.1571 11.0311 40.6567 10.5308C40.1564 10.0305 39.5463 9.65368 38.8749 9.43034L35.8313 8.41446C35.7191 8.37559 35.6219 8.30276 35.5531 8.20608C35.4843 8.1094 35.4473 7.99369 35.4473 7.87502C35.4473 7.75636 35.4843 7.64065 35.5531 7.54397C35.6219 7.44729 35.7191 7.37446 35.8313 7.33559L38.8789 6.31971C40.2412 5.8669 41.3083 4.79984 41.7611 3.43746L42.7731 0.393775V0.389837Z" fill="#BE1313"/>
</g>
<defs>
<clipPath id="clip0_1_58">
<rect width="63" height="63" fill="white"/>
</clipPath>
</defs>
</svg>
