<svg width="63" height="63" viewBox="0 0 63 63" fill="none" xmlns="http://www.w3.org/2000/svg">
<path d="M55.125 21C55.125 23.6775 52.0117 26.04 47.25 27.4627C44.2733 28.3552 40.6534 28.875 36.75 28.875C32.8466 28.875 29.2267 28.3526 26.25 27.4627C21.4909 26.04 18.375 23.6775 18.375 21C18.375 16.6504 26.6018 13.125 36.75 13.125C46.8983 13.125 55.125 16.6504 55.125 21Z" fill="#BE1313"/>
<path d="M55.125 21C55.125 16.6504 46.8982 13.125 36.75 13.125C26.6018 13.125 18.375 16.6504 18.375 21M55.125 21V31.5C55.125 34.1775 52.0118 36.54 47.25 37.9627C44.2733 38.8552 40.6534 39.375 36.75 39.375C32.8466 39.375 29.2267 38.8526 26.25 37.9627C21.4909 36.54 18.375 34.1775 18.375 31.5V21M55.125 21C55.125 23.6775 52.0118 26.04 47.25 27.4627C44.2733 28.3552 40.6534 28.875 36.75 28.875C32.8466 28.875 29.2267 28.3526 26.25 27.4627C21.4909 26.04 18.375 23.6775 18.375 21" stroke="#BE1313" stroke-width="2" stroke-linecap="round" stroke-linejoin="round"/>
<path d="M7.875 31.5V42C7.875 44.6775 10.9909 47.04 15.75 48.4627C18.7267 49.3552 22.3466 49.875 26.25 49.875C30.1534 49.875 33.7733 49.3526 36.75 48.4627C41.5091 47.04 44.625 44.6775 44.625 42V39.375M7.875 31.5C7.875 28.3579 12.1669 25.6462 18.375 24.3836M7.875 31.5C7.875 34.1775 10.9909 36.54 15.75 37.9627C18.7267 38.8552 22.3466 39.375 26.25 39.375C28.0744 39.375 29.8357 39.2621 31.5 39.0495" stroke="#BE1313" stroke-width="2" stroke-linecap="round" stroke-linejoin="round"/>
</svg>
